<?xml version="1.0" encoding="utf-8"?>
<!DOCTYPE svg PUBLIC "-//W3C//DTD SVG 20010904//EN" "http://www.w3.org/TR/2001/REC-SVG-20010904/DTD/svg10.dtd">
<svg version="1.0" xmlns="http://www.w3.org/2000/svg" width="1002pt" height="1002pt" viewBox="0 0 1002 1002" preserveAspectRatio="xMidYMid meet">
<g fill="#D5F703FE">
<path d="M 473.50 962.39 C 439.88 959.80 411.46 955.14 382.50 947.49 C 253.60 913.43 144.10 823.48 85.48 703.50 C 61.33 654.06 47.74 607.73 40.76 551.00 C 37.63 525.55 37.63 472.45 40.76 447.00 C 47.74 390.27 61.33 343.94 85.48 294.50 C 149.72 163.02 274.11 68.78 418.00 42.56 C 449.12 36.88 464.55 35.61 502.00 35.61 C 539.45 35.61 554.88 36.88 586.00 42.56 C 763.17 74.84 907.00 209.02 951.47 383.50 C 970.93 459.84 970.93 538.16 951.47 614.50 C 926.92 710.81 870.68 798.11 793.00 860.48 C 722.91 916.75 642.57 950.03 551.50 960.53 C 538.20 962.06 485.53 963.32 473.50 962.39ZM 317.23 801.05 C 328.87 798.07 338.57 793.68 350.10 786.16 C 374.65 770.15 396.08 748.40 418.73 716.50 C 440.86 685.33 464.10 630.78 470.50 595.00 C 473.91 575.93 476.91 554.77 477.93 542.70 C 479.45 524.58 479.25 490.44 477.51 470.73 C 476.20 455.91 471.54 422.68 470.54 421.06 C 470.33 420.73 469.88 418.56 469.54 416.24 C 467.95 405.62 460.23 380.50 453.37 363.65 C 447.50 349.22 433.64 321.91 425.88 309.50 C 409.23 282.85 386.06 256.32 364.00 238.67 C 340.51 219.87 303.84 201.36 284.50 198.55 C 283.40 198.39 282.50 198.16 282.50 198.05 C 282.50 197.93 281.38 197.73 280.00 197.59 C 278.62 197.46 273.35 196.76 268.27 196.04 C 258.29 194.61 225.50 195.39 225.50 197.04 C 225.50 197.16 224.60 197.39 223.50 197.56 C 217.93 198.42 214.97 199.34 209.27 201.98 C 183.66 213.87 164.95 238.94 158.89 269.50 C 157.08 278.63 157.06 311.20 158.86 319.50 C 165.84 351.72 180.27 382.55 201.89 411.46 C 212.08 425.09 236.78 449.57 251.16 460.31 C 290.81 489.93 341.97 509.01 388.00 511.35 C 397.58 511.84 399.60 512.23 403.65 514.32 C 414.54 519.95 416.63 536.85 407.43 544.92 C 402.83 548.96 395.91 550.70 381.55 551.43 C 346.05 553.22 303.11 569.41 277.27 590.74 C 245.58 616.90 229.52 641.13 220.37 676.60 C 217.74 686.80 217.55 688.81 217.53 708.00 C 217.50 730.99 218.65 737.72 225.45 754.58 C 235.94 780.60 256.95 798.36 282.76 803.02 C 290.05 804.34 308.53 803.29 317.23 801.05ZM 727.50 800.95 C 758.40 791.48 779.00 764.66 784.61 726.60 C 788.60 699.56 783.69 671.20 770.42 644.60 C 763.34 630.40 755.79 619.89 743.61 607.28 C 718.75 581.52 691.38 565.90 654.00 556.15 C 643.06 553.30 634.43 552.12 616.82 551.07 C 600.20 550.07 597.66 549.37 592.59 544.34 C 586.46 538.27 585.32 529.86 589.56 522.06 C 591.72 518.10 596.35 513.95 599.25 513.39 C 599.66 513.32 600.11 513.16 600.25 513.05 C 600.92 512.51 605.28 511.98 613.00 511.49 C 695.08 506.34 772.07 460.29 815.96 390.09 C 830.39 367.00 842.45 336.01 845.01 315.43 C 847.37 296.42 846.50 273.11 842.91 259.62 C 838.25 242.05 824.88 222.41 810.00 211.27 C 804.44 207.11 791.53 200.11 788.27 199.49 C 787.30 199.31 786.39 199.06 786.25 198.95 C 785.95 198.71 786.12 198.75 777.50 196.97 C 767.26 194.86 730.93 195.07 727.39 197.26 C 726.85 197.59 724.08 198.13 721.23 198.46 C 713.72 199.32 697.43 205.25 682.50 212.56 C 640.14 233.30 600.12 271.68 573.01 317.58 C 566.34 328.87 554.16 353.23 549.10 365.38 C 537.89 392.31 530.94 421.16 526.29 460.00 C 524.12 478.13 523.81 532.57 525.78 549.50 C 530.10 586.67 535.69 612.36 544.87 637.28 C 551.24 654.54 554.30 661.55 564.05 681.19 C 574.02 701.26 578.02 708.07 588.11 722.09 C 621.02 767.84 657.21 796.06 691.34 802.59 C 701.32 804.50 718.46 803.72 727.50 800.95Z"/></g>
<g fill="#6430FDFF">
<path d="M 282.50 801.92 C 268.64 799.58 255.41 792.42 244.07 781.12 C 233.71 770.80 230.37 765.68 224.57 751.17 C 218.55 736.14 216.23 716.80 217.99 696.50 C 219.30 681.29 220.00 677.74 224.15 665.00 C 234.33 633.74 258.69 603.53 290.50 582.72 C 320.45 563.13 350.97 553.26 387.33 551.40 C 397.50 550.88 399.89 550.42 404.26 548.13 C 417.57 541.18 417.30 520.43 403.80 513.41 C 402.32 512.64 396.47 511.53 390.80 510.96 C 360.18 507.84 344.31 504.50 319.50 495.96 C 281.27 482.79 249.33 461.44 216.97 427.42 C 204.93 414.75 187.10 390.11 180.51 377.01 C 171.81 359.75 164.40 339.45 160.40 322.00 C 157.92 311.14 157.42 285.14 159.46 272.94 C 163.22 250.48 172.42 232.51 187.64 217.92 C 204.64 201.63 227.50 194.05 255.90 195.27 C 311.41 197.65 367.56 232.05 411.21 290.40 C 417.75 299.15 425.39 310.17 428.19 314.90 C 447.06 346.82 460.61 380.73 468.88 416.71 C 472.23 431.32 475.89 453.21 476.70 463.50 C 477.00 467.35 477.44 472.98 477.68 476.00 C 478.56 487.10 478.65 527.86 477.82 540.00 C 474.04 595.74 456.33 653.23 428.92 698.71 C 389.56 764.04 338.83 803.55 295.16 802.88 C 290.95 802.82 285.25 802.39 282.50 801.92Z"/></g>
<g fill="#6430FDFF">
<path d="M 691.50 801.59 C 656.64 794.74 618.42 764.68 587.75 720.00 C 546.15 659.39 523.98 585.54 524.01 507.59 C 524.02 456.28 531.90 412.62 549.21 368.00 C 571.62 310.20 611.97 258.50 659.72 226.38 C 682.00 211.40 710.18 200.14 734.50 196.51 C 783.32 189.21 821.02 208.64 838.30 250.00 C 847.87 272.90 848.54 304.13 840.10 333.66 C 835.73 348.95 823.84 377.63 819.92 382.37 C 819.40 382.99 815.87 388.23 812.06 394.00 C 793.60 422.02 770.83 445.07 740.95 465.97 C 719.59 480.92 706.36 487.76 682.53 496.18 C 658.89 504.53 642.86 507.92 615.49 510.39 C 597.69 511.99 593.30 513.80 588.97 521.36 C 583.05 531.67 586.54 543.64 597.00 548.98 C 599.72 550.37 604.84 551.00 620.00 551.84 C 648.55 553.42 664.20 557.45 690.61 570.00 C 722.38 585.10 750.52 610.53 766.54 638.62 C 771.99 648.17 780.40 669.27 782.04 677.50 C 786.80 701.31 785.60 729.79 779.07 748.42 C 776.67 755.26 770.30 767.39 766.90 771.60 C 761.24 778.62 748.87 789.81 742.95 793.28 C 728.91 801.49 708.13 804.85 691.50 801.59ZM 651.30 319.39 C 653.06 318.50 659.67 312.71 666.00 306.53 C 685.07 287.89 701.67 277.02 721.87 269.91 C 724.82 268.88 727.59 268.25 728.03 268.52 C 728.47 268.79 728.98 268.57 729.16 268.02 C 729.35 267.48 730.87 266.89 732.55 266.70 C 734.22 266.52 736.13 266.04 736.80 265.63 C 737.46 265.22 738.50 265.19 739.11 265.57 C 739.72 265.95 740.58 265.68 741.02 264.97 C 741.59 264.04 746.77 263.50 759.66 263.04 C 769.47 262.69 778.17 262.19 778.99 261.95 C 781.31 261.25 785.88 254.85 786.57 251.32 C 787.33 247.44 785.80 242.48 782.43 237.91 C 781.05 236.04 779.82 234.66 779.71 234.86 C 779.59 235.05 777.48 234.66 775.00 234.00 C 769.83 232.60 753.31 233.34 740.57 235.53 C 736.21 236.28 732.28 236.67 731.82 236.39 C 731.37 236.11 731.00 236.41 731.00 237.06 C 731.00 237.73 730.17 238.02 729.05 237.72 C 727.97 237.44 726.96 237.50 726.80 237.86 C 726.63 238.21 723.12 239.56 719.00 240.87 C 702.42 246.10 680.23 257.47 666.74 267.65 C 663.57 270.04 660.72 272.00 660.40 272.00 C 660.08 272.00 658.93 273.01 657.83 274.25 C 656.74 275.49 656.19 275.82 656.61 275.00 C 657.81 272.61 636.03 295.18 633.91 298.50 C 629.81 304.96 632.36 314.81 639.24 319.01 C 643.19 321.42 647.03 321.54 651.30 319.39Z"/></g>
<g fill="#D2CEFDFF">
<path d="M 641.00 318.69 C 641.00 318.25 640.66 318.04 640.25 318.23 C 639.56 318.55 633.82 313.17 633.25 311.66 C 632.89 310.72 632.92 310.91 632.63 306.25 C 632.49 303.91 632.66 302.00 633.02 302.00 C 633.69 302.00 635.59 298.34 635.89 296.50 C 636.19 294.66 648.33 283.09 649.33 283.70 C 649.87 284.04 650.03 283.85 649.68 283.29 C 649.33 282.73 650.04 281.42 651.26 280.38 C 653.44 278.53 653.45 278.53 652.12 280.50 C 651.38 281.60 652.70 280.48 655.05 278.00 C 657.41 275.52 659.00 274.18 658.60 275.00 C 658.19 275.82 659.30 274.93 661.06 273.00 C 662.82 271.07 663.95 270.18 663.56 271.00 C 663.17 271.82 663.78 271.44 664.92 270.14 C 666.07 268.84 667.01 268.17 667.03 268.64 C 667.05 269.11 667.90 268.51 668.91 267.29 C 669.92 266.08 671.02 265.36 671.35 265.69 C 671.68 266.02 672.24 265.55 672.58 264.65 C 672.93 263.75 673.62 263.26 674.11 263.57 C 674.61 263.88 675.28 263.43 675.61 262.57 C 675.94 261.71 676.60 261.25 677.07 261.54 C 677.54 261.83 678.77 261.27 679.80 260.29 C 680.83 259.30 682.30 258.36 683.08 258.20 C 683.86 258.03 685.06 257.15 685.75 256.25 C 686.44 255.35 687.01 255.04 687.02 255.56 C 687.02 256.08 687.36 255.98 687.77 255.34 C 688.49 254.20 701.36 247.57 707.69 245.07 C 709.44 244.37 711.43 244.15 712.09 244.56 C 712.92 245.07 713.05 244.89 712.49 243.98 C 711.90 243.02 712.13 242.84 713.34 243.30 C 714.25 243.65 715.00 243.45 715.00 242.86 C 715.00 242.27 715.70 242.05 716.55 242.38 C 717.56 242.77 717.85 242.57 717.40 241.83 C 716.91 241.05 717.38 240.87 718.85 241.25 C 720.21 241.61 720.77 241.43 720.35 240.76 C 719.92 240.06 720.63 239.94 722.43 240.39 C 724.42 240.89 724.97 240.75 724.43 239.89 C 723.90 239.03 724.45 238.90 726.43 239.39 C 728.42 239.89 728.97 239.75 728.43 238.89 C 727.90 238.03 728.45 237.90 730.43 238.39 C 732.42 238.89 732.97 238.75 732.43 237.89 C 731.90 237.03 732.45 236.90 734.43 237.39 C 736.41 237.89 736.96 237.75 736.44 236.90 C 735.90 236.03 736.70 235.91 739.45 236.43 C 742.24 236.95 743.01 236.82 742.46 235.93 C 741.90 235.03 742.93 234.90 746.61 235.41 C 749.95 235.87 751.03 235.77 750.03 235.10 C 748.01 233.74 777.16 234.48 779.72 235.85 C 780.79 236.42 782.29 237.70 783.07 238.70 C 784.37 240.38 784.33 240.40 782.43 239.00 C 780.60 237.64 780.60 237.70 782.52 239.55 C 783.68 240.67 784.43 242.20 784.19 242.93 C 783.90 243.80 784.18 244.00 784.98 243.51 C 785.88 242.96 786.03 243.33 785.54 244.87 C 785.14 246.14 785.30 247.00 785.93 247.00 C 786.52 247.00 787.00 247.90 787.00 249.00 C 787.00 250.10 786.50 251.00 785.89 251.00 C 785.28 251.00 785.05 251.68 785.36 252.50 C 785.68 253.32 785.47 254.00 784.91 254.00 C 784.34 254.00 784.16 254.45 784.50 255.00 C 784.84 255.55 784.64 256.00 784.06 256.00 C 783.48 256.00 783.11 256.52 783.25 257.15 C 783.39 257.79 781.97 259.36 780.10 260.65 C 777.31 262.58 775.52 262.98 770.10 262.88 C 765.16 262.79 764.26 262.58 766.50 262.05 C 768.42 261.60 766.56 261.37 761.35 261.42 C 756.87 261.46 753.72 261.83 754.35 262.23 C 755.44 262.93 749.23 263.51 742.28 263.35 C 740.35 263.31 739.30 263.68 739.68 264.28 C 740.07 264.93 739.30 265.04 737.57 264.61 C 735.58 264.11 735.03 264.25 735.57 265.11 C 736.10 265.97 735.55 266.10 733.57 265.61 C 731.58 265.11 731.03 265.25 731.57 266.11 C 732.10 266.97 731.55 267.10 729.57 266.61 C 727.63 266.12 727.04 266.25 727.54 267.07 C 728.04 267.87 727.57 268.00 726.00 267.50 C 724.37 266.98 723.95 267.12 724.50 268.00 C 725.05 268.88 724.63 269.02 723.00 268.50 C 721.37 267.98 720.95 268.12 721.50 269.00 C 722.05 269.88 721.63 270.02 720.00 269.50 C 718.31 268.96 717.95 269.11 718.54 270.06 C 719.10 270.97 718.85 271.16 717.66 270.70 C 716.75 270.35 716.00 270.53 716.00 271.09 C 716.00 271.66 715.55 271.84 715.00 271.50 C 714.45 271.16 714.00 271.39 714.00 272.00 C 714.00 272.61 713.58 272.86 713.07 272.54 C 711.71 271.70 704.98 275.15 705.70 276.32 C 706.07 276.91 705.79 276.99 705.00 276.50 C 704.18 275.99 703.20 276.38 702.35 277.54 C 701.61 278.55 701.00 278.99 701.00 278.50 C 701.00 278.01 700.29 278.49 699.43 279.56 C 698.56 280.63 698.14 280.82 698.50 280.00 C 698.86 279.18 698.44 279.37 697.57 280.44 C 696.71 281.51 696.00 281.99 696.00 281.50 C 696.00 281.01 695.29 281.49 694.43 282.56 C 693.56 283.63 693.15 283.82 693.51 283.00 C 693.88 282.18 693.20 282.62 692.00 284.00 C 690.80 285.38 690.12 285.82 690.49 285.00 C 690.85 284.18 690.41 284.40 689.50 285.50 C 688.60 286.60 687.45 287.39 686.96 287.26 C 686.46 287.13 685.57 287.93 684.98 289.04 C 684.39 290.15 683.47 290.79 682.95 290.47 C 682.43 290.15 682.00 290.27 682.00 290.75 C 682.00 291.23 679.41 293.83 676.25 296.53 C 673.09 299.24 671.15 300.56 671.95 299.47 C 672.75 298.39 671.53 299.26 669.24 301.41 C 666.96 303.56 665.27 305.63 665.50 305.99 C 665.72 306.36 663.34 309.10 660.20 312.08 L 654.50 317.50 L 659.50 311.95 C 663.67 307.32 663.43 307.47 658.06 312.90 C 654.52 316.48 651.96 318.87 652.37 318.22 C 652.86 317.42 652.59 317.22 651.56 317.62 C 650.71 317.94 650.19 318.50 650.41 318.85 C 650.63 319.21 648.60 319.50 645.90 319.50 C 643.21 319.50 641.00 319.14 641.00 318.69Z"/></g>
</svg>
